<svg xmlns="http://www.w3.org/2000/svg" viewBox="0 0 512 512">
  <defs>
    <linearGradient id="g" x1="0" y1="0" x2="1" y2="1">
      <stop offset="0" stop-color="#dcfce7"/>
      <stop offset="0.55" stop-color="#86efac"/>
      <stop offset="1" stop-color="#facc15"/>
    </linearGradient>
    <filter id="s" x="-20%" y="-20%" width="140%" height="140%">
      <feDropShadow dx="0" dy="18" stdDeviation="18" flood-color="#16a34a" flood-opacity="0.22"/>
    </filter>
  </defs>
  <rect width="512" height="512" rx="120" fill="url(#g)"/>
  <path filter="url(#s)" fill="#ffffff" d="M256 163c0-46-36-83-80-83-43 0-78 35-78 78 0 31 18 56 45 68-28 11-48 37-48 70 0 44 36 79 81 79 37 0 66-23 80-54 14 31 43 54 80 54 45 0 81-35 81-79 0-33-20-59-48-70 27-12 45-37 45-68 0-43-35-78-78-78-44 0-80 37-80 83z"/>
  <path fill="#16a34a" d="M256 315c14 30 42 52 78 52 40 0 73-32 73-71 0-36-25-63-59-70 31-5 55-33 55-68 0-36-30-66-67-66-44 0-80 39-80 91 0-52-36-91-80-91-37 0-67 30-67 66 0 35 24 63 55 68-34 7-59 34-59 70 0 39 33 71 73 71 36 0 64-22 78-52z" opacity="0.92"/>
  <path fill="#fbbf24" d="M383 84l13 31 31 13-31 13-13 31-13-31-31-13 31-13 13-31zM120 358l9 22 22 9-22 9-9 22-9-22-22-9 22-9 9-22z"/>
  <text x="256" y="289" text-anchor="middle" font-family="Arial, sans-serif" font-size="86" font-weight="900" fill="#064e3b">30</text>
</svg>